<svg xmlns="http://www.w3.org/2000/svg" width="644" height="644" viewBox="0 0 644 644">
    <g fill="none" fill-rule="evenodd">
        <g>
            <g>
                <g>
                    <g>
                        <g>
                            <path fill="#F240DD" fill-rule="nonzero" d="M644 33l-36 101H261l-86 207 340-16 16 16-33 94H32l-16-16L199 33l429-16 16 16z" transform="translate(-398 -72) translate(160 66) translate(238 6) translate(0 60)"/>
                            <path fill="#FFFBFF" fill-rule="nonzero" d="M628 17l-36 101H245l-86 207 340-17 16 17-33 94H16L0 402 183 17 612 0l16 17z" transform="translate(-398 -72) translate(160 66) translate(238 6) translate(0 60)"/>
                            <path fill="#140010" fill-rule="nonzero" d="M612 0L576 101 229 101 143 308 499 308 466 402 0 402 167 0z" transform="translate(-398 -72) translate(160 66) translate(238 6) translate(0 60)"/>
                            <path fill="#F240DD" stroke="#F02BD9" d="M498 490.5l.5 4.5-148.5.5-.5-4.5 148.5-.5zM149 490.5l.5 4.52L1 495.5.5 491l148.5-.5z" transform="translate(-398 -72) translate(160 66) translate(238 6) translate(0 60)"/>
                        </g>
                        <path fill="#140010" fill-rule="nonzero" d="M178.66 510.48c2.368 0 4.288-.736 5.76-2.208 1.472-1.472 2.208-3.392 2.208-5.76v-4.8h-4.992v4.8c0 .96-.272 1.728-.816 2.304-.544.576-1.248.864-2.112.864-.864 0-1.568-.288-2.112-.864-.544-.576-.816-1.344-.816-2.304v-18.624c0-.96.272-1.728.816-2.304.544-.576 1.248-.864 2.112-.864.864 0 1.568.288 2.112.864.544.576.816 1.344.816 2.304v3.936h4.992v-3.936c0-2.368-.736-4.288-2.208-5.76-1.472-1.472-3.392-2.208-5.76-2.208s-4.288.736-5.76 2.208c-1.472 1.472-2.208 3.392-2.208 5.76v18.624c0 2.368.736 4.288 2.208 5.76 1.472 1.472 3.392 2.208 5.76 2.208zm35.544 0c2.432 0 4.4-.744 5.904-2.232 1.504-1.488 2.256-3.448 2.256-5.88v-18.336c0-2.432-.752-4.392-2.256-5.88-1.504-1.488-3.472-2.232-5.904-2.232s-4.4.744-5.904 2.232c-1.504 1.488-2.256 3.448-2.256 5.88v18.336c0 2.432.752 4.392 2.256 5.88 1.504 1.488 3.472 2.232 5.904 2.232zm0-4.8c-.96 0-1.712-.288-2.256-.864-.544-.576-.816-1.392-.816-2.448v-18.336c0-1.056.272-1.872.816-2.448.544-.576 1.296-.864 2.256-.864.96 0 1.712.288 2.256.864.544.576.816 1.392.816 2.448v18.336c0 1.056-.272 1.872-.816 2.448-.544.576-1.296.864-2.256.864zm33.384 4.32v-13.632h2.88c2.432 0 4.368-.728 5.808-2.184 1.44-1.456 2.16-3.4 2.16-5.832v-3.936c0-2.432-.72-4.376-2.16-5.832-1.44-1.456-3.376-2.184-5.808-2.184H242.5V510h5.088zm2.64-18.432h-2.64V481.2h2.64c.992 0 1.76.272 2.304.816.544.544.816 1.312.816 2.304v4.128c0 .992-.272 1.76-.816 2.304-.544.544-1.312.816-2.304.816zM287.356 510v-14.064l6.816-19.536h-5.328l-4.032 12.816-3.936-12.816h-5.424l6.816 19.536V510h5.088zm34.584 0v-28.8h5.568v-4.8h-16.224v4.8h5.568V510h5.088z" transform="translate(-398 -72) translate(160 66) translate(238 6) translate(0 60)"/>
                    </g>
                </g>
            </g>
        </g>
    </g>
</svg>
